:SAMPLES-PER-SECOND 30
:FULLY-SPECIFIED
:DEGREES
1455
root  30.4837 36.9294 27.441 177.188 -9.81964 177.217
RightUpLeg  -7.94219 -10.3986 -26.5985
RightLeg  10.1629 10.1336 -3.78224
RightFoot  -8.81342 -0.152432 4.78227
RightToes  -1.33073e-015 0 -3.6325e-017
Spine  16.3118 -2.46028 5.13008
Spine1  12.3153 -1.25416 -2.53686
HEad  1.26485 -9.71327 -10.2601
LeftShoulder1  1.36901 -0.845896 -25.2817
LeftArm  -10.9521 -23.8386 -45.5674
LeftForeArm  0.686326 -62.6091 -22.5027
LeftHand  -0.139385 2.67331 5.50969
RightShoulder  -0.00739301 -3.5025 23.7783
RightArm  -19.7436 15.8663 39.1655
RightForeArm  16.7483 74.8228 48.5608
RightHand  -0.327962 4.593 -4.0999
LeftUpLeg  -18.7695 15.3992 9.37841
LeftLeg  31.7698 -2.21432 -1.12719
LeftFoot  -5.95835 0.298267 -5.59682
LeftToes  -1.93726e-010 2.42366e-011 2.16268e-013
1456
root  29.4008 37.2054 27.3858 178.009 -9.82688 177.465
RightUpLeg  -9.2576 -7.61564 -26.497
RightLeg  12.4748 7.57571 -2.76975
RightFoot  -8.8254 -0.0106082 -1.95045
RightToes  -1.33073e-015 0 -3.6325e-017
Spine  14.7854 -2.41312 6.12707
Spine1  12.5359 -0.758514 -3.81039
HEad  1.94833 -9.51898 -10.5058
LeftShoulder1  1.29345 -0.581527 -25.4757
LeftArm  -9.94202 -22.6206 -44.1292
LeftForeArm  0.988268 -63.2238 -23.1599
LeftHand  -0.146128 2.39281 5.29656
RightShoulder  0.08699 -3.18883 23.8326
RightArm  -19.3037 13.1451 40.4529
RightForeArm  17.1952 74.7502 48.0321
RightHand  -0.289994 4.60747 -3.65895
LeftUpLeg  -19.2228 13.914 7.53211
LeftLeg  31.5849 -0.341659 0.127279
LeftFoot  -6.43744 0.226537 -4.39138
LeftToes  -1.93726e-010 2.42366e-011 2.16268e-013
1457
root  28.6705 37.4303 27.2933 178.869 -9.80298 177.447
RightUpLeg  -10.4652 -2.27109 -26.531
RightLeg  15.9727 2.9221 -0.111736
RightFoot  -9.37847 -0.141587 4.3768
RightToes  -1.33073e-015 0 -3.6325e-017
Spine  13.4128 -1.98011 5.23498
Spine1  13.0695 -0.307771 -4.6583
HEad  2.1911 -9.07712 -10.9613
LeftShoulder1  1.2215 -0.350267 -25.5039
LeftArm  -9.59945 -21.1287 -43.2262
LeftForeArm  1.62175 -63.9796 -23.9785
LeftHand  -0.138967 2.72364 5.57302
RightShoulder  0.107242 -3.12469 24.1762
RightArm  -18.0346 11.6304 40.884
RightForeArm  16.0284 74.4186 46.6007
RightHand  -0.291287 4.1267 -3.82794
LeftUpLeg  -19.3528 12.9595 6.09207
LeftLeg  30.7828 0.834655 0.88714
LeftFoot  -6.61457 0.192157 -3.6987
LeftToes  -1.93726e-010 2.42366e-011 2.16268e-013
1458
root  27.9767 37.8049 27.2478 179.729 -10.2595 177.316
RightUpLeg  -12.1892 -1.84331 -24.7166
RightLeg  20.7538 4.3309 1.70637
RightFoot  -9.52026 -0.122341 3.63238
RightToes  -1.33073e-015 0 -3.6325e-017
Spine  12.1124 -1.84955 4.35482
Spine1  13.6688 -0.318969 -4.66211
HEad  2.12511 -8.84857 -10.5261
LeftShoulder1  1.13399 -0.105655 -25.2188
LeftArm  -10.0148 -19.5284 -42.72
LeftForeArm  2.10318 -64.3333 -24.3635
LeftHand  -0.146801 2.53357 5.55926
RightShoulder  0.0797121 -3.21915 24.6062
RightArm  -16.1577 10.7046 41.6343
RightForeArm  13.8363 73.8267 44.3078
RightHand  -0.275331 4.81739 -3.42286
LeftUpLeg  -18.6863 11.9149 4.51344
LeftLeg  28.1151 1.64009 1.30154
LeftFoot  -5.96447 0.183458 -3.15429
LeftToes  -1.93726e-010 2.42366e-011 2.16268e-013
1459
root  27.4363 38.1907 27.211 -179.75 -11.2701 177.312
RightUpLeg  -13.4414 -3.19632 -21.6487
RightLeg  25.4163 4.97541 2.3548
RightFoot  -9.51357 -0.12294 3.65258
RightToes  -1.33073e-015 0 -3.6325e-017
Spine  11.3255 -2.06105 3.28557
Spine1  14.0407 -0.757846 -4.43034
HEad  2.27896 -7.63654 -9.64888
LeftShoulder1  1.14487 -0.167518 -24.9732
LeftArm  -10.834 -17.5773 -41.4606
LeftForeArm  2.84406 -64.9893 -25.1373
LeftHand  -0.164782 2.21559 5.71885
RightShoulder  0.101324 -3.14941 24.7122
RightArm  -14.3528 9.51512 42.9053
RightForeArm  13.2408 73.5831 43.3944
RightHand  -0.298628 5.29723 -3.55225
LeftUpLeg  -17.58 10.992 3.37274
LeftLeg  24.9677 1.83145 1.28237
LeftFoot  -4.79417 0.171623 -2.4984
LeftToes  -1.93726e-010 2.42366e-011 2.16268e-013
1460
root  26.9532 38.5599 27.1118 -179.753 -11.9739 177.517
RightUpLeg  -14.1385 -4.55662 -17.9602
RightLeg  28.8083 4.7984 2.61762
RightFoot  -9.60443 -0.110018 2.96167
RightToes  -1.33073e-015 0 -3.6325e-017
Spine  11.3318 -2.20129 3
Spine1  13.6906 -0.890908 -4.60946
HEad  2.97791 -6.73793 -8.94695
LeftShoulder1  1.14574 -0.201587 -24.7002
LeftArm  -11.3361 -15.1791 -40.3325
LeftForeArm  3.86299 -66.0978 -26.5619
LeftHand  -0.164316 2.30987 5.85397
RightShoulder  0.00383102 -3.46436 25.4003
RightArm  -12.4571 8.34472 43.459
RightForeArm  12.9503 73.4619 42.954
RightHand  -0.321029 5.61392 -3.69905
LeftUpLeg  -15.6393 10.953 2.76592
LeftLeg  21.504 1.57663 1.0181
LeftFoot  -3.79241 0.16194 -2.10294
LeftToes  -1.93726e-010 2.42366e-011 2.16268e-013
